# Blender 4.1.0
# www.blender.org
mtllib PlayerEggShadow.mtl
o RIP12
v -0.011420 -0.277205 0.000000
v 0.238580 -0.277205 0.000000
v 0.237377 -0.277205 0.024504
v 0.233777 -0.277205 0.048773
v 0.227816 -0.277205 0.072571
v 0.219550 -0.277205 0.095671
v 0.209061 -0.277205 0.117849
v 0.196448 -0.277205 0.138893
v 0.181833 -0.277205 0.158598
v 0.165357 -0.277205 0.176777
v 0.147179 -0.277205 0.193253
v 0.127473 -0.277205 0.207867
v 0.106430 -0.277205 0.220480
v 0.084251 -0.277205 0.230970
v 0.061152 -0.277205 0.239235
v 0.037353 -0.277205 0.245196
v 0.013085 -0.277205 0.248796
v -0.011420 -0.277205 0.250000
v -0.035924 -0.277205 0.248796
v -0.060192 -0.277205 0.245196
v -0.083991 -0.277205 0.239235
v -0.107090 -0.277205 0.230970
v -0.129269 -0.277205 0.220480
v -0.150312 -0.277205 0.207867
v -0.170018 -0.277205 0.193253
v -0.188196 -0.277205 0.176777
v -0.204672 -0.277205 0.158598
v -0.219287 -0.277205 0.138893
v -0.231900 -0.277205 0.117849
v -0.242389 -0.277205 0.095671
v -0.250655 -0.277205 0.072571
v -0.256616 -0.277205 0.048773
v -0.260216 -0.277205 0.024504
v -0.261420 -0.277205 0.000000
v -0.260216 -0.277205 -0.024504
v -0.256616 -0.277205 -0.048773
v -0.250655 -0.277205 -0.072571
v -0.242389 -0.277205 -0.095671
v -0.231900 -0.277205 -0.117849
v -0.219287 -0.277205 -0.138893
v -0.204672 -0.277205 -0.158598
v -0.188196 -0.277205 -0.176777
v -0.170018 -0.277205 -0.193253
v -0.150312 -0.277206 -0.207867
v -0.129269 -0.277206 -0.220480
v -0.107090 -0.277206 -0.230970
v -0.083991 -0.277206 -0.239235
v -0.060192 -0.277206 -0.245196
v -0.035924 -0.277206 -0.248796
v -0.011420 -0.277206 -0.250000
v 0.013085 -0.277206 -0.248796
v 0.037353 -0.277206 -0.245196
v 0.061152 -0.277206 -0.239235
v 0.084251 -0.277206 -0.230970
v 0.106430 -0.277206 -0.220480
v 0.127473 -0.277206 -0.207867
v 0.147179 -0.277205 -0.193253
v 0.165357 -0.277205 -0.176777
v 0.181833 -0.277205 -0.158598
v 0.196448 -0.277205 -0.138893
v 0.209061 -0.277205 -0.117849
v 0.219550 -0.277205 -0.095671
v 0.227816 -0.277205 -0.072571
v 0.233777 -0.277205 -0.048773
v 0.237377 -0.277205 -0.024504
v 0.238580 -0.277205 0.000000
v 0.238580 -0.277205 0.000000
vn -0.0000 -1.0000 -0.0000
vn -0.0000 -0.0000 -1.0000
s 0
usemtl RIP12.003
f 3//1 1//1 2//1
f 4//1 1//1 3//1
f 5//1 1//1 4//1
f 6//1 1//1 5//1
f 7//1 1//1 6//1
f 8//1 1//1 7//1
f 9//1 1//1 8//1
f 10//1 1//1 9//1
f 11//1 1//1 10//1
f 12//1 1//1 11//1
f 13//1 1//1 12//1
f 14//1 1//1 13//1
f 15//1 1//1 14//1
f 16//1 1//1 15//1
f 17//1 1//1 16//1
f 18//1 1//1 17//1
f 19//1 1//1 18//1
f 20//1 1//1 19//1
f 21//1 1//1 20//1
f 22//1 1//1 21//1
f 23//1 1//1 22//1
f 24//1 1//1 23//1
f 25//1 1//1 24//1
f 26//1 1//1 25//1
f 27//1 1//1 26//1
f 28//1 1//1 27//1
f 29//1 1//1 28//1
f 30//1 1//1 29//1
f 31//1 1//1 30//1
f 32//1 1//1 31//1
f 33//1 1//1 32//1
f 34//1 1//1 33//1
f 35//1 1//1 34//1
f 36//1 1//1 35//1
f 37//1 1//1 36//1
f 38//1 1//1 37//1
f 39//1 1//1 38//1
f 40//1 1//1 39//1
f 41//1 1//1 40//1
f 42//1 1//1 41//1
f 43//1 1//1 42//1
f 44//1 1//1 43//1
f 45//1 1//1 44//1
f 46//1 1//1 45//1
f 47//1 1//1 46//1
f 48//1 1//1 47//1
f 49//1 1//1 48//1
f 50//1 1//1 49//1
f 51//1 1//1 50//1
f 52//1 1//1 51//1
f 53//1 1//1 52//1
f 54//1 1//1 53//1
f 55//1 1//1 54//1
f 56//1 1//1 55//1
f 57//1 1//1 56//1
f 58//1 1//1 57//1
f 59//1 1//1 58//1
f 60//1 1//1 59//1
f 61//1 1//1 60//1
f 62//1 1//1 61//1
f 63//1 1//1 62//1
f 64//1 1//1 63//1
f 65//1 1//1 64//1
f 66//1 1//1 65//1
f 67//1 1//1 66//2
